<svg width="52" height="52" viewBox="0 0 52 52" fill="none" xmlns="http://www.w3.org/2000/svg">
<g id="After Effects">
<path id="Shape" d="M40.824 52H11.176C5.003 52 0 46.997 0 40.824V11.176C0 5.003 5.003 0 11.176 0H40.825C46.997 0 52 5.003 52 11.176V40.825C52 46.997 46.997 52 40.824 52Z" fill="#3A3375"/>
<g id="Group">
<path id="Shape_2" fill-rule="evenodd" clip-rule="evenodd" d="M24.2 39H27.44L18.92 11H15.6L7.35999 39H10.48L13.12 29.96H21.44L24.2 39ZM17.24 15.64L20.72 27H13.88L17.24 15.64Z" fill="#E7ADFB"/>
<path id="Shape_3" fill-rule="evenodd" clip-rule="evenodd" d="M35.48 36.8791C32.813 36.8791 31.48 35.7471 31.48 33.4801V31.4001L43 30.8001V25.3191C43 23.2131 42.38 21.5661 41.14 20.3791C39.9 19.1931 38.174 18.5991 35.96 18.5991C33.746 18.5991 31.966 19.2001 30.62 20.4001C29.273 21.5991 28.6 23.2801 28.6 25.4401V33.6401C28.6 37.5351 30.92 39.4811 35.56 39.4811C37.8 39.4811 39.946 38.8541 42 37.6001L40.92 35.2391C38.946 36.3331 37.133 36.8791 35.48 36.8791ZM40.08 25.1601V28.2401L31.48 28.6791V25.4801C31.48 24.0931 31.886 23.0401 32.7 22.3201C33.513 21.5991 34.506 21.2401 35.68 21.2401C36.853 21.2401 37.88 21.5391 38.76 22.1391C39.64 22.7401 40.08 23.7471 40.08 25.1601Z" fill="#E7ADFB"/>
</g>
</g>
</svg>
