<svg width="50" height="50" viewBox="0 0 50 50" fill="none" xmlns="http://www.w3.org/2000/svg">
<g id="Audition">
<path id="Shape" d="M39.2538 50H10.7462C4.81058 50 0 45.1894 0 39.2538V10.7462C0 4.81058 4.81058 0 10.7462 0H39.2548C45.1894 0 50 4.81058 50 10.7462V39.2548C50 45.1894 45.1894 50 39.2538 50Z" fill="#2F5074"/>
<g id="Group">
<path id="Shape_2" fill-rule="evenodd" clip-rule="evenodd" d="M23.8846 37.5H27L18.8067 10.5769H15.6144L7.69232 37.5H10.6923L13.2308 28.8077H21.2308L23.8846 37.5ZM17.1923 15.0384L20.5375 25.9615H13.9616L17.1923 15.0384Z" fill="#00F5F1"/>
<path id="Shape_3" d="M42.1539 37.4999H39.5V36.0769C38.3971 37.3076 36.9096 37.924 35.0375 37.924C30.2164 37.924 27.8068 35.5778 27.8068 30.8855V18.2307H30.576V30.8846C30.576 33.8326 32.0625 35.3076 35.0375 35.3076C37.9356 35.3076 39.3846 33.8211 39.3846 30.8461V18.2307H42.1539V37.4999Z" fill="#00F5F1"/>
</g>
</g>
</svg>
