<svg width="34" height="52" viewBox="0 0 34 52" fill="none" xmlns="http://www.w3.org/2000/svg">
<g id="Figma">
<path id="path0_fill" d="M8.5 52.0001C13.192 52.0001 17 48.1174 17 43.3334V34.6667H8.5C3.808 34.6667 0 38.5494 0 43.3334C0 48.1174 3.808 52.0001 8.5 52.0001Z" fill="#0ACF83"/>
<path id="path1_fill" d="M0 25.9999C0 21.2159 3.808 17.3333 8.5 17.3333H17V34.6666H8.5C3.808 34.6666 0 30.7839 0 25.9999Z" fill="#A259FF"/>
<path id="path1_fill_1_" d="M0 8.66667C0 3.88267 3.808 0 8.5 0H17V17.3333H8.5C3.808 17.3333 0 13.4507 0 8.66667Z" fill="#F24E1E"/>
<path id="path2_fill" d="M17 0H25.5C30.192 0 34 3.88267 34 8.66667C34 13.4507 30.192 17.3333 25.5 17.3333H17V0Z" fill="#FF7262"/>
<path id="path3_fill" d="M34 25.9999C34 30.7839 30.192 34.6666 25.5 34.6666C20.808 34.6666 17 30.7839 17 25.9999C17 21.2159 20.808 17.3333 25.5 17.3333C30.192 17.3333 34 21.2159 34 25.9999Z" fill="#1ABCFE"/>
</g>
</svg>
