<svg width="54" height="54" viewBox="0 0 54 54" fill="none" xmlns="http://www.w3.org/2000/svg">
<g id="Illustrator">
<path id="Shape" d="M18.12 27.9999H24.96L21.48 16.6399L18.12 27.9999Z" fill="black"/>
<path id="Shape_2" fill-rule="evenodd" clip-rule="evenodd" d="M12.176 0H41.824C48.538 0 54 5.462 54 12.176V41.824C54 48.538 48.538 54 41.824 54H12.176C5.462 54 0 48.538 0 41.824V12.176C0 5.462 5.462 0 12.176 0ZM25.68 30.96L28.44 40H31.68L23.16 12H19.84L11.6 40H14.72L17.36 30.96H25.68ZM38.24 40H35.36V19.96H38.24V40ZM36.86 14.879C37.3 14.879 37.68 14.719 38 14.4C38.32 14.08 38.48 13.691 38.48 13.238C38.48 12.785 38.32 12.398 38 12.078C37.68 11.758 37.3 11.598 36.86 11.598C36.42 11.598 36.033 11.765 35.7 12.098C35.366 12.432 35.2 12.812 35.2 13.239C35.2 13.666 35.366 14.046 35.7 14.379C36.033 14.713 36.42 14.879 36.86 14.879Z" fill="black"/>
</g>
</svg>
