<svg width="52" height="52" viewBox="0 0 52 52" fill="none" xmlns="http://www.w3.org/2000/svg">
<g id="Illustrator">
<path id="Shape" d="M40.824 52H11.176C5.003 52 0 46.997 0 40.824V11.176C0 5.003 5.003 0 11.176 0H40.825C46.997 0 52 5.003 52 11.176V40.825C52 46.997 46.997 52 40.824 52Z" fill="#6D4C13"/>
<g id="Group">
<path id="Shape_2" fill-rule="evenodd" clip-rule="evenodd" d="M27.44 39H30.68L22.16 11H18.84L10.6 39H13.72L16.36 29.96H24.68L27.44 39ZM20.48 15.64L23.96 27H17.12L20.48 15.64Z" fill="#FFBD2E"/>
<path id="Shape_3" fill-rule="evenodd" clip-rule="evenodd" d="M36.999 13.3999C37.319 13.0799 37.479 12.6929 37.479 12.2399C37.479 11.7869 37.32 11.3999 36.999 11.0779C36.679 10.7579 36.299 10.5979 35.859 10.5979C35.419 10.5979 35.032 10.7649 34.699 11.0979C34.365 11.4319 34.199 11.8119 34.199 12.2389C34.199 12.6659 34.365 13.0459 34.699 13.3789C35.032 13.7129 35.419 13.8789 35.859 13.8789C36.299 13.8789 36.679 13.7189 36.999 13.3999ZM34.36 38.9999H37.24V18.9599H34.36V38.9999Z" fill="#FFBD2E"/>
</g>
</g>
</svg>
