<svg width="16" height="16" viewBox="0 0 16 16" fill="none" xmlns="http://www.w3.org/2000/svg">
<path fill-rule="evenodd" clip-rule="evenodd" d="M11.0915 0.545C10.292 0.5075 10.0378 0.5 8 0.5C5.96225 0.5 5.708 0.50975 4.9085 0.545C4.109 0.5825 3.566 0.70775 3.0875 0.89375C2.58682 1.0818 2.13325 1.37692 1.7585 1.7585C1.3766 2.13299 1.08143 2.58663 0.89375 3.0875C0.70775 3.566 0.5825 4.109 0.545 4.9085C0.5075 5.708 0.5 5.96225 0.5 8C0.5 10.0378 0.50975 10.292 0.545 11.0915C0.5825 11.8903 0.70775 12.4348 0.89375 12.9125C1.08195 13.4131 1.37705 13.8666 1.7585 14.2415C2.13315 14.6232 2.58674 14.9184 3.0875 15.1062C3.566 15.2915 4.10975 15.4175 4.9085 15.455C5.708 15.4925 5.96225 15.5 8 15.5C10.0378 15.5 10.292 15.4902 11.0915 15.455C11.8903 15.4175 12.4348 15.2915 12.9125 15.1062C13.413 14.9178 13.8665 14.6227 14.2415 14.2415C14.6233 13.867 14.9185 13.4133 15.1062 12.9125C15.2915 12.434 15.4175 11.8903 15.455 11.0915C15.4925 10.292 15.5 10.0378 15.5 8C15.5 5.96225 15.4902 5.708 15.455 4.9085C15.4175 4.10975 15.2915 3.56525 15.1062 3.0875C14.918 2.58694 14.6229 2.13342 14.2415 1.7585C13.8245 1.34225 13.4075 1.08425 12.9125 0.89375C12.434 0.70775 11.8903 0.5825 11.0915 0.545ZM8 2C6.1445 2 5.8415 2.00525 4.97825 2.0435C4.39025 2.07125 3.99575 2.15 3.62975 2.2925C3.30425 2.4185 3.0695 2.56925 2.81975 2.81975C2.58501 3.04655 2.40451 3.32344 2.29175 3.62975C2.14925 3.99725 2.0705 4.391 2.0435 4.97825C2.0045 5.80625 2 6.09575 2 8C2 9.8555 2.00525 10.1585 2.0435 11.0218C2.07125 11.609 2.15 12.0043 2.29175 12.3695C2.41925 12.6958 2.56925 12.9305 2.81825 13.1795C3.071 13.4315 3.30575 13.5822 3.62825 13.7067C3.99875 13.85 4.39325 13.9295 4.97825 13.9565C5.80625 13.9955 6.09575 14 8 14C9.8555 14 10.1585 13.9948 11.0218 13.9565C11.6083 13.9288 12.0035 13.85 12.3695 13.7083C12.6943 13.5815 12.9305 13.4307 13.1795 13.1818C13.4323 12.929 13.583 12.6943 13.7075 12.3717C13.85 12.002 13.9295 11.6068 13.9565 11.0218C13.9955 10.1938 14 9.90425 14 8C14 6.1445 13.9948 5.8415 13.9565 4.97825C13.9288 4.39175 13.85 3.99575 13.7075 3.62975C13.5945 3.32375 13.4143 3.04697 13.1803 2.81975C12.9536 2.58488 12.6766 2.40438 12.3702 2.29175C12.0027 2.14925 11.6083 2.0705 11.0218 2.0435C10.1938 2.0045 9.90425 2 8 2ZM11.9375 5C12.4553 5 12.875 4.58027 12.875 4.0625C12.875 3.54473 12.4553 3.125 11.9375 3.125C11.4197 3.125 11 3.54473 11 4.0625C11 4.58027 11.4197 5 11.9375 5ZM8 4.25C10.0711 4.25 11.75 5.92893 11.75 8C11.75 10.0711 10.0711 11.75 8 11.75C5.92893 11.75 4.25 10.0711 4.25 8C4.25 5.92893 5.92893 4.25 8 4.25ZM8 5.75C6.75736 5.75 5.75 6.75736 5.75 8C5.75 9.24264 6.75736 10.25 8 10.25C9.24264 10.25 10.25 9.24264 10.25 8C10.25 6.75736 9.24264 5.75 8 5.75Z" fill="white"/>
</svg>
