<svg width="55" height="54" viewBox="0 0 55 54" fill="none" xmlns="http://www.w3.org/2000/svg">
<g id="Laravel">
<path id="Shape" fill-rule="evenodd" clip-rule="evenodd" d="M54.969 12.2162C54.9894 12.2882 54.9998 12.3624 55 12.437V24.028C55 24.3308 54.8301 24.6105 54.5547 24.7611L44.3542 30.3622V41.464C44.3542 41.7662 44.1859 42.0451 43.9112 42.1972L22.6185 53.8875C22.5698 53.9139 22.5166 53.9308 22.4634 53.9487L22.4599 53.9499C22.4558 53.9513 22.4518 53.9529 22.4478 53.9547L22.4374 53.9592L22.4374 53.9592L22.4325 53.9614C22.4284 53.9632 22.4242 53.965 22.42 53.9666C22.4146 53.9687 22.4092 53.9706 22.4036 53.972C22.2548 54.0093 22.0983 54.0093 21.9495 53.972C21.9347 53.9681 21.9207 53.9619 21.9067 53.9557C21.8978 53.9518 21.8888 53.9478 21.8797 53.9445L21.8515 53.9349C21.8116 53.9215 21.7711 53.9079 21.7335 53.8875L0.445281 42.1972C0.170021 42.0464 0.000218101 41.7668 0 41.464V6.69118C0 6.61512 0.0110766 6.54117 0.0310146 6.46933C0.0347549 6.45566 0.0413017 6.44265 0.047891 6.42956L0.047892 6.42956C0.0530108 6.41939 0.0581552 6.40917 0.0620292 6.39855L0.0682612 6.38178C0.0826822 6.34283 0.0972143 6.30358 0.11852 6.26756C0.129021 6.2502 0.14262 6.23495 0.156239 6.21968C0.164168 6.21078 0.172105 6.20188 0.179442 6.19255L0.196125 6.17002C0.215538 6.14358 0.234797 6.11734 0.258086 6.09431C0.274717 6.07844 0.294651 6.06528 0.314501 6.05218L0.314513 6.05217L0.31452 6.05217L0.314524 6.05217C0.325074 6.0452 0.335599 6.03825 0.345591 6.03092C0.353944 6.02433 0.362073 6.01759 0.370171 6.01088L0.370174 6.01088L0.370185 6.01087L0.370196 6.01086L0.370207 6.01085C0.393239 5.99176 0.416032 5.97287 0.443066 5.95803H0.444174L11.0888 0.1129C11.3631 -0.0376334 11.7007 -0.0376334 11.975 0.1129L22.6196 5.95803H22.6218C22.6472 5.97312 22.6697 5.99091 22.6922 6.0087L22.7087 6.02171L22.7193 6.02986C22.7289 6.03689 22.7388 6.04368 22.7488 6.05047L22.7489 6.05052C22.7688 6.06414 22.7887 6.07776 22.8057 6.09325C22.8273 6.1146 22.8446 6.138 22.8621 6.16167L22.8622 6.16172L22.8622 6.16177L22.8623 6.16183L22.8623 6.16185L22.8623 6.16188C22.8699 6.1721 22.8775 6.18238 22.8855 6.19255C22.8928 6.20249 22.9012 6.21194 22.9097 6.22141L22.9097 6.22143L22.9097 6.22145C22.9228 6.23613 22.9359 6.25087 22.9453 6.26756C22.9652 6.30058 22.9783 6.33489 22.9916 6.36948L23.0029 6.39855C23.0066 6.40885 23.0116 6.41877 23.0165 6.42871L23.0166 6.42875C23.0233 6.44225 23.0301 6.45579 23.0339 6.47039C23.0543 6.54238 23.0647 6.61661 23.0649 6.69118V28.41L31.9351 23.5388V12.4359C31.9351 12.362 31.9462 12.287 31.9661 12.2162C31.9704 12.2022 31.9767 12.1891 31.983 12.1762L31.983 12.1761L31.983 12.1761L31.983 12.1761L31.9831 12.1761L31.9831 12.1761L31.9831 12.176L31.9831 12.176C31.9881 12.1656 31.9932 12.1552 31.9971 12.1444L32.0076 12.1177C32.0214 12.082 32.0352 12.0463 32.0547 12.0134C32.0647 11.997 32.0774 11.9824 32.09 11.968L32.09 11.9679L32.0901 11.9679L32.0901 11.9679L32.0901 11.9678C32.0986 11.9582 32.107 11.9485 32.1145 11.9384C32.1222 11.9286 32.1296 11.9187 32.1369 11.9089C32.1547 11.8848 32.1723 11.8611 32.1943 11.8401C32.2113 11.8239 32.2312 11.8105 32.2512 11.7972C32.2611 11.7905 32.2711 11.7838 32.2807 11.7767C32.2909 11.7689 32.3008 11.7609 32.3105 11.7529C32.3323 11.7351 32.3537 11.7177 32.3782 11.7039H32.3793L43.025 5.85873C43.2993 5.70798 43.6369 5.70798 43.9112 5.85873L54.5558 11.7039C54.5817 11.7184 54.6034 11.7353 54.6252 11.7524L54.6253 11.7525L54.6253 11.7526C54.6352 11.7603 54.6452 11.7681 54.6555 11.7757C54.6658 11.7835 54.6766 11.791 54.6875 11.7986C54.7061 11.8115 54.7248 11.8244 54.7408 11.8391C54.7624 11.8604 54.7797 11.8838 54.7972 11.9075C54.8048 11.9178 54.8125 11.9281 54.8206 11.9384C54.8275 11.9472 54.835 11.9557 54.8424 11.9641C54.8564 11.9798 54.8703 11.9955 54.8804 12.0134C54.9001 12.0452 54.9131 12.0796 54.9262 12.114L54.9262 12.1141L54.9302 12.1245L54.938 12.1444C54.9417 12.1534 54.946 12.1621 54.9502 12.1708C54.9575 12.1855 54.9648 12.2002 54.969 12.2162ZM53.2255 23.5388V13.9001L49.5004 15.9453L44.3542 18.7713V28.41L53.2266 23.5388H53.2255ZM42.5809 31.3299V40.9749L23.0638 51.6912V41.9553L37.5188 34.0871L42.5809 31.3299ZM1.77448 8.15537V40.9749L21.2893 51.6901V41.9563L11.0944 36.4535L11.091 36.4514L11.0866 36.4493C11.0642 36.4369 11.0442 36.4209 11.0241 36.4048C11.0133 36.3962 11.0025 36.3876 10.9914 36.3795C10.9807 36.3714 10.9695 36.3639 10.9582 36.3565L10.9582 36.3564C10.9401 36.3445 10.9222 36.3326 10.9072 36.3183L10.905 36.3151C10.8858 36.2975 10.8705 36.2771 10.8552 36.2566C10.8476 36.2464 10.84 36.2362 10.8319 36.2263C10.8276 36.2209 10.8233 36.2156 10.8188 36.2105L10.8057 36.1955L10.8057 36.1954C10.7909 36.1788 10.7764 36.1624 10.7654 36.144L10.7643 36.1408C10.7489 36.1164 10.7382 36.0882 10.7274 36.0601L10.7178 36.0351C10.7133 36.0252 10.7083 36.0155 10.7034 36.0059C10.6926 35.9846 10.6818 35.9633 10.6757 35.9401V35.939C10.6669 35.907 10.6637 35.8737 10.6605 35.8407L10.658 35.8154C10.6565 35.8048 10.6545 35.7943 10.6525 35.7837C10.6486 35.7626 10.6447 35.7415 10.6447 35.7203V13.0254L5.49956 10.1985L1.77448 8.15537ZM11.5319 1.82278L11.533 1.82218H11.5308L11.5319 1.82278ZM11.5319 1.82278L2.66393 6.69118L11.5308 11.5602L20.3988 6.69012L11.5319 1.82278ZM16.1453 32.2088L21.2904 29.384V8.15431L17.5654 10.1995L12.4191 13.0254V34.2551L16.1453 32.2088ZM34.6001 12.437L43.4681 7.568L52.335 12.4359L43.4681 17.306L34.6001 12.437ZM42.5809 18.7713L37.4347 15.9453L33.7096 13.9001V23.5388L38.8547 26.3637L42.5809 28.41V18.7713ZM35.1828 33.41L22.1755 40.4921L13.3219 35.7129L22.6207 30.6073L32.8234 25.0051L41.6848 29.871L35.1828 33.41Z" fill="#FF2D20"/>
</g>
</svg>
