<?xml version="1.0" standalone="no"?>
<!DOCTYPE svg PUBLIC "-//W3C//DTD SVG 20010904//EN"
 "http://www.w3.org/TR/2001/REC-SVG-20010904/DTD/svg10.dtd">
<svg version="1.0" xmlns="http://www.w3.org/2000/svg"
 width="165.000000pt" height="165.000000pt" viewBox="0 0 165.000000 165.000000"
 preserveAspectRatio="xMidYMid meet">
<metadata>
Created by potrace 1.16, written by Peter Selinger 2001-2019
</metadata>
<g transform="translate(0.000000,165.000000) scale(0.100000,-0.100000)"
fill="#2B2D42" stroke="none">
<path d="M489 1407 c-18 -12 -44 -38 -57 -57 -20 -29 -23 -45 -20 -95 5 -75
33 -120 95 -147 l43 -19 0 -68 0 -69 -37 -7 c-186 -35 -299 -240 -232 -422 29
-79 114 -163 190 -188 155 -52 316 13 388 156 48 96 49 148 7 284 -5 16 5 27
53 58 l59 38 42 -30 c41 -29 72 -40 134 -44 30 -2 30 -3 65 -141 l34 -139 -27
-20 c-55 -40 -71 -116 -40 -184 72 -150 313 -54 265 106 -13 45 -71 101 -104
101 -12 0 -27 4 -34 8 -6 4 -27 69 -46 145 l-35 138 28 14 c46 24 97 92 110
146 39 160 -109 308 -269 269 -65 -15 -133 -75 -156 -135 -17 -43 -17 -137 -2
-175 5 -10 -9 -26 -46 -50 -28 -19 -55 -36 -59 -38 -4 -2 -29 13 -54 34 -26
21 -76 48 -113 61 l-66 22 -3 64 -3 65 35 12 c45 15 103 79 112 124 14 76 -22
153 -86 187 -50 27 -128 25 -171 -4z m152 -44 c31 -19 59 -68 59 -105 0 -33
-34 -85 -69 -103 -81 -41 -171 18 -171 113 0 89 101 142 181 95z m605 -197
c87 -52 105 -176 37 -257 -75 -88 -222 -75 -281 26 -29 50 -27 140 4 182 59
79 156 98 240 49z m-545 -298 c184 -97 193 -353 15 -463 -68 -41 -168 -47
-245 -15 -185 80 -216 334 -55 456 83 64 188 72 285 22z m672 -418 c34 -27 43
-70 23 -109 -46 -88 -176 -58 -176 41 0 77 90 117 153 68z"/>
</g>
</svg>
