<svg width="15" height="14" viewBox="0 0 15 14" fill="none" xmlns="http://www.w3.org/2000/svg">
<path fill-rule="evenodd" clip-rule="evenodd" d="M1.5 0.25H13.5C13.9142 0.25 14.25 0.585786 14.25 1V13C14.25 13.4142 13.9142 13.75 13.5 13.75H1.5C1.08579 13.75 0.75 13.4142 0.75 13V1C0.75 0.585786 1.08579 0.25 1.5 0.25ZM2.25 1.75V12.25H12.75V1.75H2.25ZM3 3.625C3 4.24632 3.50368 4.75 4.125 4.75C4.74632 4.75 5.25 4.24632 5.25 3.625C5.25 3.00368 4.74632 2.5 4.125 2.5C3.50368 2.5 3 3.00368 3 3.625ZM4.875 5.5V11.125H3.375V5.5H4.875ZM9 5.125C8.4495 5.125 7.938 5.39875 7.5 5.8225V5.5H6V11.125H7.5V7.9375C7.5 7.21263 8.08763 6.625 8.8125 6.625C9.53737 6.625 10.125 7.21263 10.125 7.9375V11.125H11.625V7.9375C11.625 6.38425 10.5533 5.125 9 5.125Z" fill="white"/>
</svg>
