<svg width="20" height="20" viewBox="0 0 20 20" fill="none" xmlns="http://www.w3.org/2000/svg">
<path fill-rule="evenodd" clip-rule="evenodd" d="M10 19.7733L4.69667 14.47C1.76776 11.5411 1.76778 6.79235 4.69671 3.86344C7.62564 0.934519 12.3744 0.934519 15.3033 3.86344C18.2322 6.79235 18.2322 11.5411 15.3033 14.47L10 19.7733ZM14.125 13.2917C16.4029 11.0136 16.4028 7.32021 14.1247 5.04224C11.8467 2.76428 8.15332 2.76428 5.87528 5.04224C3.59724 7.32021 3.59711 11.0136 5.875 13.2917L10 17.4167L14.125 13.2917ZM8.33333 9.16668C8.33333 10.0872 9.07953 10.8333 10 10.8333C10.9205 10.8333 11.6667 10.0872 11.6667 9.16668C11.6667 8.24621 10.9205 7.50002 10 7.50002C9.07953 7.50002 8.33333 8.24621 8.33333 9.16668Z" fill="#777777"/>
</svg>
