<svg width="52" height="52" viewBox="0 0 52 52" fill="none" xmlns="http://www.w3.org/2000/svg">
<g id="Premiere">
<path id="Shape" d="M40.824 52H11.176C5.003 52 0 46.997 0 40.824V11.176C0 5.003 5.003 0 11.176 0H40.825C46.997 0 52 5.003 52 11.176V40.825C52 46.997 46.997 52 40.824 52Z" fill="#653E66"/>
<g id="Group">
<path id="Shape_2" fill-rule="evenodd" clip-rule="evenodd" d="M12.44 39H15.319V29.8H22.359C23.72 29.8 24.893 29.554 25.88 29.06C26.866 28.567 27.6 27.994 28.079 27.34C28.56 26.686 28.94 25.847 29.22 24.82C29.5 23.793 29.666 22.94 29.72 22.259C29.773 21.579 29.8 20.773 29.8 19.839C29.8 17.2 29.167 15.066 27.9 13.44C26.634 11.813 24.693 11 22.08 11H12.44V39ZM22.001 27H15.32V13.8H21.841C25.227 13.8 26.921 15.827 26.921 19.88C26.921 20.627 26.914 21.201 26.9 21.6C26.887 22 26.794 22.6 26.62 23.4C26.447 24.2 26.207 24.813 25.9 25.24C25.593 25.667 25.106 26.066 24.44 26.44C23.773 26.813 22.961 27 22.001 27Z" fill="#F8A3FF"/>
<path id="Shape_3" d="M36.521 38.9999H33.641V18.9599H36.441V19.9999C37.641 19.1199 39.161 18.6799 41.001 18.6799C41.907 18.6799 42.907 18.7869 44.001 18.9999L43.281 21.7199C42.347 21.4269 41.382 21.2809 40.382 21.2809C39.382 21.2809 38.487 21.5409 37.701 22.0599C36.914 22.5809 36.521 23.2809 36.521 24.1609V38.9999Z" fill="#F8A3FF"/>
</g>
</g>
</svg>
