<?xml version="1.0" standalone="no"?>
<!DOCTYPE svg PUBLIC "-//W3C//DTD SVG 20010904//EN"
 "http://www.w3.org/TR/2001/REC-SVG-20010904/DTD/svg10.dtd">
<svg version="1.0" xmlns="http://www.w3.org/2000/svg"
 width="180.000000pt" height="159.000000pt" viewBox="0 0 180.000000 159.000000"
 preserveAspectRatio="xMidYMid meet">
<metadata>
Created by potrace 1.16, written by Peter Selinger 2001-2019
</metadata>
<g transform="translate(0.000000,159.000000) scale(0.100000,-0.100000)"
fill="#2B2D42" stroke="none">
<path d="M690 1309 c-63 -60 -119 -109 -124 -109 -6 0 -35 28 -66 62 -35 38
-61 59 -68 54 -7 -4 -61 -63 -122 -132 l-110 -125 0 -419 0 -420 -44 0 c-50 0
-68 -16 -41 -37 28 -19 1542 -19 1570 0 27 21 9 37 -41 37 l-44 0 0 355 0 356
-91 120 c-50 66 -96 119 -102 116 -7 -2 -51 -55 -99 -118 -69 -89 -88 -121
-88 -146 l0 -33 -55 0 -55 0 0 138 0 139 -144 136 c-79 75 -148 137 -153 136
-4 0 -60 -49 -123 -110z m257 -71 l123 -123 0 -182 c0 -101 -3 -183 -7 -183
-4 0 -53 50 -111 110 -57 61 -108 110 -113 110 -5 0 -42 -35 -84 -77 l-74 -78
-1 119 0 120 -41 49 -42 49 104 104 c57 57 108 104 114 104 5 0 65 -55 132
-122z m-410 -86 l93 -107 0 -146 0 -145 -35 -34 -35 -34 0 -233 0 -234 -157 3
-158 3 -3 405 -2 405 97 112 c54 62 100 113 103 112 3 0 47 -48 97 -107z m952
-148 l71 -96 -2 -341 -3 -342 -147 -3 -148 -3 0 347 0 347 70 94 c39 51 74 93
79 93 4 0 40 -43 80 -96z m-529 -217 l110 -118 0 -225 0 -224 -230 0 -230 0 0
226 0 226 112 119 c62 65 116 118 120 117 4 -2 57 -56 118 -121z m255 -77 l0
-115 -50 0 -50 0 -3 104 c-1 58 0 111 3 118 3 10 19 13 52 11 l48 -3 0 -115z
m3 -272 l3 -118 -56 0 -55 0 0 113 c0 63 3 117 7 121 4 4 28 6 53 4 l45 -3 3
-117z m-3 -188 c0 -23 -4 -25 -48 -28 -35 -2 -49 1 -53 12 -13 34 4 47 53 44
44 -3 48 -5 48 -28z"/>
<path d="M914 1106 c-3 -7 -4 -38 -2 -67 l3 -54 60 0 60 0 3 53 c2 31 -2 60
-9 68 -15 19 -108 19 -115 0z m94 -58 c3 -26 1 -28 -32 -28 -33 0 -36 2 -36
31 0 28 2 30 33 27 27 -2 33 -8 35 -30z"/>
<path d="M337 564 c-4 -4 -7 -47 -7 -96 l0 -88 85 0 86 0 -3 93 -3 92 -75 3
c-42 1 -79 0 -83 -4z m133 -89 l0 -55 -55 0 -55 0 0 55 0 55 55 0 55 0 0 -55z"/>
<path d="M1427 814 c-4 -4 -7 -92 -7 -196 l0 -189 48 3 47 3 0 190 0 190 -40
3 c-23 2 -44 0 -48 -4z m63 -189 c0 -148 -1 -155 -20 -155 -19 0 -20 7 -20
155 0 148 1 155 20 155 19 0 20 -7 20 -155z"/>
</g>
</svg>
