<svg width="65" height="49" viewBox="0 0 65 49" fill="none" xmlns="http://www.w3.org/2000/svg">
<g id="Sass">
<path id="Shape" fill-rule="evenodd" clip-rule="evenodd" d="M55.9551 28.1372C53.6825 28.1501 51.7145 28.699 50.064 29.5163C49.9572 29.3037 49.8504 29.0959 49.7463 28.8933L49.7463 28.8933L49.7463 28.8932L49.7462 28.8932L49.7462 28.8931C49.2565 27.9399 48.8273 27.1046 48.7437 26.4518C48.7238 26.2921 48.7032 26.1431 48.6834 26.0002L48.6832 25.999L48.6831 25.9982L48.6831 25.9977C48.5891 25.3196 48.5142 24.7786 48.6294 23.8725C48.727 23.1045 49.0668 22.1118 49.2623 21.5406C49.3464 21.2949 49.4038 21.1272 49.4038 21.0888C49.3909 20.9739 49.264 20.4121 47.9564 20.3993C46.6488 20.3865 45.5187 20.6547 45.3917 20.9994C45.2647 21.3442 45.0108 22.1359 44.8457 22.9531C44.6172 24.1533 42.2303 28.4053 40.8718 30.6399C40.4274 29.7716 40.0465 29.0055 39.9702 28.3924C39.9502 28.2314 39.9294 28.0814 39.9095 27.9375V27.9375C39.8157 27.2599 39.7407 26.7189 39.8561 25.8133C39.9537 25.0453 40.2935 24.0527 40.489 23.4815C40.5731 23.2358 40.6305 23.0681 40.6305 23.0297C40.6178 22.9148 40.4909 22.3529 39.1833 22.3402C37.8754 22.3274 36.7456 22.5955 36.6186 22.9403C36.5661 23.0829 36.5114 23.3064 36.4455 23.5754C36.3522 23.9568 36.2364 24.4297 36.0726 24.8939C35.8266 25.624 33.1076 31.7196 32.039 34.1151L31.8065 34.6365C31.3875 35.5814 31.0195 36.3347 30.7527 36.8455C30.5664 37.2023 30.6343 37.0792 30.6834 36.9901L30.6834 36.99C30.7046 36.9516 30.7223 36.9195 30.7146 36.9349C30.4861 37.369 30.3591 37.6116 30.3591 37.6116V37.6245C30.1814 37.9437 29.9909 38.25 29.9019 38.25C29.8385 38.25 29.7115 37.3945 29.9273 36.2199C30.2395 34.5825 30.8486 32.3363 31.2187 30.972L31.2187 30.972L31.2187 30.972L31.2187 30.9719L31.2187 30.9719L31.2188 30.9715C31.4056 30.2827 31.5314 29.8188 31.5272 29.7717C31.5272 29.7658 31.5291 29.7546 31.5317 29.7388L31.5317 29.7388C31.5572 29.5849 31.6544 28.999 30.7907 28.6864C30.0438 28.4085 29.6845 28.7278 29.5332 28.8622C29.4967 28.8945 29.4724 28.9162 29.4576 28.9162C29.3814 28.9162 29.3179 29.1205 29.3179 29.1205C29.3179 29.1205 30.3463 24.792 27.35 24.792C25.4709 24.792 22.8808 26.8478 21.5985 28.7248C21.3512 28.8608 21.0193 29.0429 20.6256 29.2589C19.7256 29.7526 18.5028 30.4235 17.2309 31.1253C16.9516 31.2786 16.6682 31.4359 16.3848 31.5932L16.3844 31.5934L16.3842 31.5935C15.9594 31.8293 15.5345 32.0652 15.1233 32.2873L14.9838 32.1338C13.8628 30.9315 12.4477 29.8375 11.0352 28.7455C7.87236 26.3003 4.72241 23.8651 4.9155 20.2461C5.01708 18.3435 5.67729 13.3254 17.8152 7.24747C27.7565 2.26765 35.7171 3.63391 37.1009 6.67288C39.0689 11.0143 32.8476 19.0841 22.5129 20.2461C18.577 20.693 16.5073 19.1607 15.9869 18.5861C15.441 17.986 15.3648 17.9605 15.1616 18.0754C14.8315 18.2542 15.0347 18.7904 15.1616 19.1097C15.4664 19.9141 16.736 21.3442 18.8944 22.0592C20.786 22.6849 25.4077 23.0297 30.9941 20.859C37.2534 18.4201 42.1415 11.6527 40.7068 5.99614C39.2468 0.237422 29.7498 -1.65236 20.7735 1.5526C15.4281 3.46792 9.63857 6.45581 5.47415 10.3758C0.522542 15.0237 -0.264636 19.0841 0.065471 20.7696C0.926061 25.2488 5.71628 28.5663 9.46912 31.1655C10.7552 32.0561 11.9194 32.8624 12.7619 33.6022C12.6676 33.6532 12.5775 33.7042 12.4916 33.7529L12.4914 33.753L12.4909 33.7532L12.4907 33.7534L12.4901 33.7537C12.426 33.7899 12.3643 33.8249 12.3048 33.8576C10.6543 34.6747 4.36956 37.9819 2.7952 41.4804C1.0177 45.4387 3.07452 48.2863 4.44574 48.6694C8.68634 49.8568 13.0285 47.7245 15.3774 44.2131C17.7134 40.7016 17.4342 36.1432 16.355 34.0619L16.3168 33.9853L17.6118 33.2191C18.4499 32.7212 19.2752 32.2615 19.9987 31.8655C19.5926 32.9764 19.3004 34.2916 19.1482 36.2069C18.9704 38.4543 19.8846 41.3655 21.0907 42.5147C21.624 43.0125 22.2588 43.0254 22.6524 43.0254C24.049 43.0254 24.6838 41.8633 25.3821 40.4717C26.2455 38.7734 27.0073 36.807 27.0073 36.807C27.0073 36.807 26.055 42.1316 28.6578 42.1316C29.61 42.1316 30.5623 40.893 30.994 40.2546V40.2674C30.994 40.2674 31.0193 40.2291 31.0701 40.1397C31.1234 40.0605 31.1742 39.9796 31.2225 39.8972V39.8717C31.6034 39.2077 32.454 37.6882 33.7237 35.1728C35.3614 31.9295 36.9359 27.869 36.9359 27.869C36.9359 27.869 37.0882 28.865 37.558 30.4994C37.7513 31.1715 38.1031 31.8864 38.4571 32.606C38.6143 32.9255 38.7719 33.2459 38.9164 33.5639C38.5355 34.1002 38.307 34.4068 38.307 34.4068L38.3197 34.4195C38.0151 34.8281 37.6721 35.2624 37.3168 35.6964C37.0564 36.0096 36.7859 36.3315 36.518 36.6502L36.517 36.6514L36.5169 36.6515C35.4527 37.9176 34.4319 39.132 34.2696 39.5399C34.0284 40.1399 34.0792 40.5868 34.549 40.9445C34.8918 41.1999 35.5012 41.2508 36.1487 41.1999C37.3168 41.1231 38.1293 40.8296 38.5356 40.6507C39.1704 40.4209 39.8941 40.0761 40.5924 39.5653C41.8621 38.6206 42.6366 37.2799 42.5604 35.4922C42.5223 34.509 42.2049 33.5386 41.8113 32.6193L41.8127 32.6172L41.8128 32.6171C41.9266 32.4518 42.0405 32.2864 42.1541 32.1085C44.1601 29.1588 45.7091 25.9157 45.7091 25.9157C45.7091 25.9157 45.8615 26.9116 46.3312 28.546C46.5291 29.227 46.8895 29.9597 47.2509 30.6945C47.33 30.8553 47.4091 31.0161 47.4866 31.1765C45.6075 32.7215 44.4268 34.5092 44.0205 35.6839C43.2714 37.8546 43.8554 38.8378 44.96 39.0676C45.455 39.1698 46.1662 38.9399 46.6993 38.7101C47.3595 38.493 48.1594 38.1226 48.8959 37.5737C50.1655 36.6288 51.3844 35.3136 51.3209 33.5387C51.2828 32.7215 51.067 31.9171 50.775 31.151C52.3747 30.487 54.4441 30.104 57.0724 30.4232C62.7223 31.0871 63.8396 34.6369 63.6239 36.118C63.408 37.5993 62.2273 38.4164 61.8336 38.6718C61.44 38.9144 61.313 39.0039 61.3511 39.1825C61.4019 39.4508 61.5796 39.4379 61.9224 39.387C62.3922 39.3102 64.8934 38.1739 64.995 35.4416C65.1473 31.9296 61.8336 28.099 55.9551 28.1372ZM12.381 42.9106C10.5146 44.9664 7.88647 45.7453 6.76918 45.0813C5.56302 44.3791 6.03266 41.3529 8.33084 39.1694C9.72745 37.8414 11.543 36.6156 12.7365 35.8623C12.8968 35.7625 13.1076 35.6351 13.355 35.4854L13.3555 35.4851C13.5195 35.386 13.6997 35.2771 13.8919 35.16C13.9681 35.1091 14.0188 35.0834 14.0188 35.0834C14.1076 35.0324 14.209 34.9686 14.3104 34.9049L14.3106 34.9048L14.3109 34.9046C15.1615 38.0202 14.3489 40.7527 12.381 42.9106ZM25.637 34.5897C25.785 34.201 25.9181 33.8517 26.0297 33.5767C26.4359 32.5807 28.023 28.1372 27.6929 27.5241C27.4134 27.0517 26.2963 27.4348 25.2677 28.584C24.6329 29.2991 23.5537 31.1377 23.0459 32.6829C22.043 35.7474 22.4745 38.8502 23.1857 39.0417C23.8687 39.2319 24.9258 36.4567 25.637 34.5897ZM37.2914 38.9906C37.0121 39.1312 36.7581 39.2332 36.6439 39.1568C36.555 39.1057 36.758 38.9141 36.758 38.9141C36.758 38.9141 38.1673 37.3947 38.7259 36.6924C38.8347 36.5525 38.9508 36.4051 39.0729 36.2501L39.0735 36.2494L39.0738 36.2491C39.3079 35.952 39.5637 35.6273 39.8305 35.275V35.4283C39.8307 37.2668 38.0786 38.4926 37.2914 38.9906ZM46.4835 34.8919C45.798 36.373 45.7725 36.8455 45.9756 36.9987C46.966 36.6412 48.5912 35.7857 48.6038 33.4873C48.6166 33.1424 48.5403 32.7722 48.4133 32.3892C47.3595 33.3213 46.7502 34.3045 46.4835 34.8919Z" fill="#CF649A"/>
</g>
</svg>
