<svg width="55" height="50" viewBox="0 0 55 50" fill="none" xmlns="http://www.w3.org/2000/svg">
<g id="Sketch">
<path id="Path" d="M12 1.64621L27.5 0L43 1.64621L55 17.8292L27.5 50L0 17.8292L12 1.64621Z" fill="#FDB300"/>
<g id="Group">
<path id="Path_2" d="M11.1164 18L27.4446 49.9919L0 18H11.1164Z" fill="#EA6C00"/>
<path id="Path_3" d="M43.7727 18L27.4445 49.9919L54.8891 18H43.7727Z" fill="#EA6C00"/>
<path id="Path_4" d="M11.1164 18H43.7727L27.4446 49.9919L11.1164 18Z" fill="#FDAD00"/>
</g>
<g id="Group_2">
<path id="Path_5" d="M27.4446 0L11.9758 1.66039L11.1164 17.9831L27.4446 0Z" fill="#FDD231"/>
<path id="Path_6" d="M27.4445 0L42.9133 1.66039L43.7727 17.9831L27.4445 0Z" fill="#FDD231"/>
<path id="Path_7" d="M54.8892 17.9831L42.9133 1.6604L43.7727 17.9831H54.8892Z" fill="#FDAD00"/>
<path id="Path_8" d="M0 17.9831L11.9758 1.6604L11.1164 17.9831H0Z" fill="#FDAD00"/>
<path id="Path_9" d="M27.4446 0L11.1164 17.9831H43.7727L27.4446 0Z" fill="#FEEEB7"/>
</g>
</g>
</svg>
