<svg width="16" height="14" viewBox="0 0 16 14" fill="none" xmlns="http://www.w3.org/2000/svg">
<path fill-rule="evenodd" clip-rule="evenodd" d="M9.1092 0.924539C7.73664 1.47373 6.82678 2.7919 6.80001 4.27001L6.80076 4.27076C6.75231 4.2641 6.70659 4.25836 6.6621 4.25278C6.34098 4.21245 6.08384 4.18017 5.32101 3.86726C4.01602 3.33176 2.72826 2.32226 1.45851 0.839513C-1.16466 7.15492 2.6265 9.62426 3.8019 10.3898C3.83867 10.4138 3.87289 10.4361 3.90426 10.4568C2.68176 11.3515 0.566765 11.5788 0.0462646 11.6193C1.06776 12.6858 4.63176 13.489 7.08276 13C10.6573 12.2868 14.18 9.49976 14.18 3.76826C14.7155 3.03401 14.8393 2.50001 15.0905 1.27001C14.2334 1.78947 13.7765 1.77386 13.3339 1.75873C13.2525 1.75595 13.1716 1.75318 13.0888 1.75376C12.0498 0.702079 10.4818 0.37535 9.1092 0.924539ZM8.30001 4.29776C8.32169 3.1121 9.28915 2.16232 10.475 2.16251C11.921 2.16251 12.68 3.40976 12.68 3.76826C12.68 8.16026 10.3273 10.8228 6.78876 11.5293C6.22926 11.6403 5.55501 11.6718 4.84476 11.6275L6.03876 10.7553C6.15944 10.6674 6.22867 10.5253 6.22356 10.3761C6.21845 10.2269 6.13967 10.09 6.01326 10.0105L4.70301 9.18701C2.59326 7.86026 1.71726 6.14051 2.16576 3.65801C3.58176 4.83776 5.05776 5.54726 6.59826 5.75726L7.76901 5.91626C7.89617 5.93339 8.02459 5.89543 8.122 5.81192C8.2194 5.72841 8.27653 5.60729 8.27901 5.47901L8.30001 4.29776Z" fill="white"/>
</svg>
