<svg width="120" height="9" viewBox="0 0 120 9" fill="none" xmlns="http://www.w3.org/2000/svg">
<path d="M118.5 6C116.517 6 115.541 4.89917 114.305 3.50537C112.922 1.94385 111.199 0 107.865 0C104.531 0 102.809 1.94385 101.426 3.50537C100.189 4.89917 99.2139 6 97.2305 6C95.2485 6 94.2729 4.89917 93.0396 3.50537C91.6553 1.94385 89.9341 0 86.6016 0C83.2676 0 81.5449 1.94385 80.1621 3.50537C78.9258 4.89917 77.9517 6 75.9683 6C73.9849 6 73.0093 4.89917 71.7729 3.50464C70.3901 1.94312 68.6675 0 65.335 0C62.001 0 60.2783 1.94385 58.8955 3.50537C57.6592 4.89917 56.6836 6 54.7002 6C52.7168 6 51.7412 4.89917 50.5049 3.50537C49.1206 1.94385 47.3979 0 44.064 0C40.73 0 39.0073 1.94312 37.623 3.50464C36.3867 4.89844 35.4097 6 33.4248 6C31.4399 6 30.4644 4.89917 29.228 3.50464C27.8438 1.94312 26.1226 0 22.7886 0C19.4517 0 17.729 1.94312 16.3433 3.50464C15.1069 4.89917 14.1299 6 12.1436 6C10.1572 6 9.18018 4.89917 7.94385 3.50464C6.55957 1.94312 4.83545 0 1.5 0C0.670898 0 0 0.671631 0 1.5C0 2.32837 0.670898 3 1.5 3C3.48633 3 4.46338 4.10083 5.69971 5.49536C7.08398 7.05688 8.80811 9 12.1436 9C15.479 9 17.2031 7.05688 18.5874 5.49536C19.8237 4.10156 20.8008 3 22.7886 3C24.772 3 25.7476 4.10083 26.9839 5.49463C28.3682 7.05615 30.0908 9 33.4248 9C36.7603 9 38.4829 7.05615 39.8672 5.49463C41.1035 4.10083 42.0791 3 44.064 3C46.0488 3 47.0244 4.10083 48.2607 5.49536C49.645 7.05688 51.3662 9 54.7002 9C58.0342 9 59.7568 7.05615 61.1396 5.49463C62.376 4.10083 63.3516 3 65.335 3C67.3184 3 68.2925 4.10083 69.5288 5.49463C70.9116 7.05615 72.6343 9 75.9683 9C79.3008 9 81.0234 7.05688 82.4062 5.49536C83.6426 4.10083 84.6182 3 86.6016 3C88.5835 3 89.5591 4.10083 90.7925 5.49463C92.1768 7.05615 93.8979 9 97.2305 9C100.564 9 102.287 7.05615 103.67 5.49463C104.906 4.10083 105.882 3 107.865 3C109.849 3 110.824 4.10083 112.061 5.49463C113.443 7.05615 115.166 9 118.5 9C119.329 9 120 8.32837 120 7.5C120 6.67163 119.329 6 118.5 6Z" fill="black"/>
</svg>
