<svg width="15" height="16" viewBox="0 0 15 16" fill="none" xmlns="http://www.w3.org/2000/svg">
<path fill-rule="evenodd" clip-rule="evenodd" d="M0.00301007 15.5L1.01701 11.774C0.348864 10.6286 -0.00216797 9.32599 1.00742e-05 8C1.00742e-05 3.85775 3.35776 0.5 7.50001 0.5C11.6423 0.5 15 3.85775 15 8C15 12.1423 11.6423 15.5 7.50001 15.5C6.17459 15.5021 4.8725 15.1514 3.72751 14.4838L0.00301007 15.5ZM3.93976 12.8705L4.48276 13.1877C5.39846 13.7218 6.43995 14.0022 7.50001 14C10.8137 14 13.5 11.3137 13.5 8C13.5 4.68629 10.8137 2 7.50001 2C4.1863 2 1.50001 4.68629 1.50001 8C1.50001 9.077 1.78276 10.1097 2.31301 11.018L2.62951 11.561L2.13976 13.3617L3.93976 12.8705ZM5.09551 4.478C4.99501 4.4735 4.89376 4.4735 4.79326 4.481L4.79251 4.48025C4.69566 4.48626 4.60102 4.51177 4.51426 4.55525C4.44901 4.58825 4.38901 4.63625 4.29376 4.72625C4.21833 4.79787 4.16969 4.86146 4.12338 4.922C4.1149 4.93309 4.10649 4.94408 4.09801 4.955C3.82077 5.31625 3.67192 5.75964 3.67501 6.215C3.68203 6.58205 3.76664 6.94347 3.92326 7.2755C4.22926 7.952 4.73326 8.66825 5.40076 9.332C5.4261 9.35722 5.45135 9.38247 5.47657 9.40768C5.61108 9.54215 5.74477 9.67582 5.88751 9.8015C6.71505 10.5301 7.7012 11.0555 8.76751 11.336C8.76751 11.336 9.18751 11.4012 9.19351 11.4012C9.31312 11.4077 9.43218 11.4009 9.55116 11.3941C9.57094 11.3929 9.59073 11.3918 9.61051 11.3907C9.82888 11.3797 10.0422 11.3208 10.2353 11.2183C10.3334 11.1675 10.4292 11.1124 10.5225 11.0532C10.5542 11.0314 10.5855 11.0089 10.6163 10.9858C10.7052 10.9215 10.7881 10.8492 10.8638 10.7698C10.928 10.7031 10.9812 10.6267 11.0213 10.5433C11.0798 10.421 11.1383 10.1877 11.1623 9.9935C11.1795 9.845 11.175 9.764 11.172 9.71375C11.1698 9.6335 11.103 9.55025 11.0295 9.515L10.593 9.31925C10.593 9.31925 9.94126 9.035 9.54301 8.85275C9.50101 8.834 9.45526 8.82575 9.41026 8.82275C9.30644 8.81209 9.20308 8.84682 9.12676 8.918V8.9165C9.12226 8.9165 9.07276 8.95925 8.52976 9.617C8.46622 9.70224 8.35754 9.74074 8.25451 9.7145C8.20576 9.70175 8.15776 9.6845 8.11126 9.665C8.0516 9.6395 8.01694 9.62418 7.98292 9.60916C7.96392 9.60076 7.94511 9.59245 7.92226 9.5825L7.91851 9.581C7.48951 9.3935 7.09201 9.14075 6.74101 8.831C6.67118 8.76948 6.60503 8.70468 6.53893 8.63994C6.51559 8.61707 6.49225 8.59421 6.46876 8.5715C6.15376 8.2655 5.89576 7.94075 5.70376 7.6205L5.65951 7.54925C5.62801 7.49825 5.59351 7.4375 5.58301 7.3955C5.55451 7.28525 5.62876 7.19675 5.62876 7.19675C5.62876 7.19675 5.81101 6.99725 5.89576 6.8885C5.96631 6.79898 6.03214 6.70586 6.09301 6.6095C6.18151 6.467 6.20926 6.32075 6.16276 6.20675C5.95276 5.6945 5.73526 5.18375 5.51176 4.67675C5.46751 4.57625 5.33626 4.5035 5.21701 4.49C5.17651 4.4855 5.13601 4.481 5.09551 4.478Z" fill="white"/>
</svg>
