<svg width="18" height="18" viewBox="0 0 18 18" fill="none" xmlns="http://www.w3.org/2000/svg">
<path fill-rule="evenodd" clip-rule="evenodd" d="M16.1573 4.8735C16.5 6.21 16.5 9 16.5 9C16.5 9 16.5 11.79 16.1573 13.1265C15.9668 13.8652 15.4095 14.4465 14.7037 14.643C13.422 15 9 15 9 15C9 15 4.58025 15 3.29625 14.643C2.5875 14.4435 2.031 13.863 1.84275 13.1265C1.5 11.79 1.5 9 1.5 9C1.5 9 1.5 6.21 1.84275 4.8735C2.03325 4.13475 2.5905 3.5535 3.29625 3.357C4.58025 3 9 3 9 3C9 3 13.422 3 14.7037 3.357C15.4125 3.5565 15.969 4.137 16.1573 4.8735ZM14.7045 5.24625C14.6475 5.02275 14.4855 4.854 14.3003 4.80225C13.9725 4.71 12.375 4.5 9 4.5C5.625 4.5 4.029 4.71 3.69825 4.80225C3.51525 4.85325 3.35325 5.022 3.2955 5.24625C3.21375 5.56425 3 6.897 3 9C3 11.103 3.21375 12.435 3.2955 12.7545C3.3525 12.9773 3.5145 13.146 3.699 13.197C4.029 13.29 5.625 13.5 9 13.5C12.375 13.5 13.9718 13.29 14.3018 13.1978C14.4847 13.1468 14.6468 12.978 14.7045 12.7537C14.7863 12.4358 15 11.1 15 9C15 6.9 14.7863 5.565 14.7045 5.24625ZM7.5 6.375V11.625L12 9L7.5 6.375Z" fill="white"/>
</svg>
